<svg viewBox="0 0 31 30" version="1.1" xmlns="http://www.w3.org/2000/svg"><path d="M13.15.781v.75c0 2.562-.715 4.363-2.112 5.3h18.814c.634 0 1.148.513 1.148 1.148v19.96c0 .634-.514 1.148-1.148 1.148H1.148A1.148 1.148 0 0 1 0 27.939V7.979C0 7.344.514 6.83 1.148 6.83l4.347.002c-1.397-.938-2.112-2.739-2.112-5.3v-.75h9.767zM29.5 18.708h-28v8.878h28v-8.878zm-9.867 1.68a.75.75 0 0 1 .102 1.493l-.102.007h-8.266a.75.75 0 0 1-.102-1.493l.102-.007h8.266zM29.5 8.33h-28v8.878h28V8.33zm-9.867 2.52a.75.75 0 0 1 .102 1.493l-.102.007h-8.266a.75.75 0 0 1-.102-1.494l.102-.006h8.266zm-8.007-8.57h-6.72l.024.3c.221 2.335 1.243 3.426 3.137 3.496l.2.003c2.092 0 3.182-1.16 3.357-3.755l.002-.044z" fill="#15120A" fill-rule="nonzero"></path></svg>