<svg viewBox="0 0 24 27" version="1.1" xmlns="http://www.w3.org/2000/svg"><path d="M10 .531a1 1 0 0 1 1 1v.747c.055 0 .11.006.165.019 10.756 2.425 14.742 9.056 11.742 19.547a.75.75 0 1 1-1.443-.413c2.762-9.658-.71-15.434-10.629-17.671a.747.747 0 0 1-.314-.154l.367 2.193c.203-.012.407-.018.612-.018 5.66 0 10.25 4.59 10.25 10.25 0 5.661-4.59 10.25-10.25 10.25S1.25 21.692 1.25 16.031c0-4.94 3.496-9.065 8.15-10.034L8.989 3.53H1a1 1 0 0 1-1-1v-1a1 1 0 0 1 1-1h9zm1.5 6.75c-.122 0-.243.003-.364.008l.752 4.51a4.25 4.25 0 1 1-1.499.129l-.742-4.45A8.75 8.75 0 1 0 11.5 7.28zm.647 6.077.093.55a.75.75 0 0 1-1.456.346l-.024-.1-.122-.735a2.751 2.751 0 1 0 1.51-.061z" fill="#15120A" fill-rule="nonzero"></path></svg>