<svg viewBox="0 0 26 30" version="1.1" xmlns="http://www.w3.org/2000/svg"><path d="M8.123.781c4.672 0 7.463 2.721 8.243 8.021 5.222.31 9.384 4.075 9.384 8.73v.75H5.583v-.75c0-4.622 4.103-8.366 9.274-8.723-.688-4.427-2.889-6.528-6.734-6.528-3.873 0-5.94 2.128-6.348 6.593l-.025.301v19.823a.75.75 0 0 1-1.493.102l-.007-.102L.252 9.12C.65 3.654 3.327.78 8.123.78zm12.749 24.267a.75.75 0 0 1 .743.648l.007.102v2.667a.75.75 0 0 1-1.493.101l-.007-.101v-2.667a.75.75 0 0 1 .75-.75zm-9.334 1.4a.75.75 0 0 1 .744.648l.006.102v.8a.75.75 0 0 1-1.493.102l-.007-.102v-.8a.75.75 0 0 1 .75-.75zm4.667-6a.75.75 0 0 1 .743.648l.007.102v4.985a.75.75 0 0 1-1.493.102l-.007-.102v-4.985a.75.75 0 0 1 .75-.75zm-4.667 0a.75.75 0 0 1 .744.648l.006.102v2.667a.75.75 0 0 1-1.493.101l-.007-.101v-2.667a.75.75 0 0 1 .75-.75zm9.334-.4a.75.75 0 0 1 .743.648l.007.102v1.8a.75.75 0 0 1-1.493.102l-.007-.102v-1.8a.75.75 0 0 1 .75-.75zm-5.205-9.767c-4.405 0-8.002 2.799-8.52 6.363l-.018.137h17.074l-.017-.137c-.507-3.492-3.97-6.248-8.25-6.36z" fill="#000" fill-rule="nonzero"></path></svg>