<svg viewBox="0 0 28 25" version="1.1" xmlns="http://www.w3.org/2000/svg"><path d="m24 17.531.294.254c.755.671 2.706 2.53 2.706 3.83 0 1.61-1.343 2.916-3 2.916s-3-1.306-3-2.916c0-1.611 3-4.084 3-4.084zm-.001 2.04-.09.09-.302.32c-.35.383-.638.746-.839 1.067-.187.298-.268.512-.268.567 0 .772.662 1.416 1.5 1.416s1.5-.644 1.5-1.416c0-.055-.081-.27-.268-.567a7.743 7.743 0 0 0-.839-1.066 12.99 12.99 0 0 0-.302-.32l-.092-.09zM16.5.281a.75.75 0 0 1 .102 1.493l-.102.007h-4.25v3.75H27a1 1 0 0 1 1 1v8a1 1 0 0 1-1 1h-7a1 1 0 0 1-1-1v-3H1a1 1 0 0 1-1-1v-4a1 1 0 0 1 1-1h9.75v-3.75H6A.75.75 0 0 1 5.898.288L6 .281h10.5zm10 11.75h-6v2h6v-2zm0-5h-25v3h25v-3z" fill="#15120A" fill-rule="nonzero"></path></svg>