<svg viewBox="0 0 29 29" version="1.1" xmlns="http://www.w3.org/2000/svg"><path d="M4 12.531c.598 0 1.134.262 1.5.678A1.991 1.991 0 0 1 7 12.53h2c.598 0 1.134.262 1.5.678a1.991 1.991 0 0 1 1.5-.678h2c.598 0 1.134.262 1.5.678a1.991 1.991 0 0 1 1.5-.678h2c.598 0 1.134.262 1.5.678a1.991 1.991 0 0 1 1.5-.678h2a2 2 0 0 1 1.995 1.851l.005.15h2a1 1 0 1 1 0 2h-2v10a2 2 0 0 1-2 2h-2a1.995 1.995 0 0 1-1.5-.678 1.992 1.992 0 0 1-1.5.677h-2a1.995 1.995 0 0 1-1.5-.677 1.992 1.992 0 0 1-1.5.677h-2a1.995 1.995 0 0 1-1.5-.677 1.992 1.992 0 0 1-1.5.677H7a1.995 1.995 0 0 1-1.5-.677 1.992 1.992 0 0 1-1.5.677H2a2 2 0 0 1-2-2v-12a2 2 0 0 1 2-2h2zm0 1.5H2a.5.5 0 0 0-.492.41l-.008.09v12a.5.5 0 0 0 .41.492l.09.008h2a.5.5 0 0 0 .492-.41l.008-.09v-12a.5.5 0 0 0-.41-.492L4 14.031zm5 0H7a.5.5 0 0 0-.492.41l-.008.09v12a.5.5 0 0 0 .41.492l.09.008h2a.5.5 0 0 0 .492-.41l.008-.09v-12a.5.5 0 0 0-.41-.492L9 14.031zm5 0h-2a.5.5 0 0 0-.492.41l-.008.09v12a.5.5 0 0 0 .41.492l.09.008h2a.5.5 0 0 0 .492-.41l.008-.09v-12a.5.5 0 0 0-.41-.492l-.09-.008zm5 0h-2a.5.5 0 0 0-.492.41l-.008.09v12a.5.5 0 0 0 .41.492l.09.008h2a.5.5 0 0 0 .492-.41l.008-.09v-12a.5.5 0 0 0-.41-.492l-.09-.008zm5 0h-2a.5.5 0 0 0-.492.41l-.008.09v12a.5.5 0 0 0 .41.492l.09.008h2a.5.5 0 0 0 .492-.41l.008-.09v-12a.5.5 0 0 0-.41-.492l-.09-.008zM10.148 1.208c.76 1.592.797 3.022.052 4.207l-.117.176c-.492.694-.432 1.484.268 2.52a.75.75 0 0 1-1.242.84c-.98-1.451-1.126-2.85-.36-4.064l.11-.164c.517-.728.517-1.651-.064-2.868a.75.75 0 1 1 1.353-.647zm4 0c.76 1.592.797 3.022.052 4.207l-.117.176c-.492.694-.432 1.484.268 2.52a.75.75 0 0 1-1.242.84c-.98-1.451-1.126-2.85-.36-4.064l.11-.164c.517-.728.517-1.651-.064-2.868a.75.75 0 1 1 1.353-.647zm4 0c.76 1.592.797 3.022.052 4.207l-.117.176c-.492.694-.432 1.484.268 2.52a.75.75 0 0 1-1.242.84c-.98-1.451-1.126-2.85-.36-4.064l.11-.164c.517-.728.517-1.651-.064-2.868a.75.75 0 1 1 1.353-.647z" fill="#15120A" fill-rule="nonzero"></path></svg>