<svg viewBox="0 0 22 32" version="1.1" xmlns="http://www.w3.org/2000/svg"><path d="M21 0a1 1 0 0 1 1 1v30a1 1 0 0 1-1 1H1a1 1 0 0 1-1-1V1a1 1 0 0 1 1-1h20zm-5 1.499H9.75v1.826a3.752 3.752 0 0 1 2.995 3.476L12.75 7v.75h-7.5V7a3.751 3.751 0 0 1 3-3.675V1.499H1.5v11.564A2.004 2.004 0 0 1 4 15a2 2 0 0 1-2.5 1.937V30.5l14.5-.001v-29zm4.5 0h-3v29h3v-29zM5 26a1 1 0 1 1 0 2 1 1 0 0 1 0-2zm3.5-8a2.5 2.5 0 1 1 0 5 2.5 2.5 0 0 1 0-5zm0 1.5a1 1 0 1 0 0 2 1 1 0 0 0 0-2zm6-5.5v4H13v-4h1.5zM2 14.5a.5.5 0 1 0 0 1 .5.5 0 0 0 0-1zm7-9.75a2.25 2.25 0 0 0-2.073 1.374l-.049.126h4.243l-.048-.126a2.251 2.251 0 0 0-1.919-1.369z" fill="#15120A" fill-rule="nonzero"></path></svg>