<svg viewBox="0 0 32 30" version="1.1" xmlns="http://www.w3.org/2000/svg"><path d="M25.5 9.531a3.5 3.5 0 0 1 3.465 3h.535a2.5 2.5 0 0 1 1.501 4.5L31 26a4 4 0 0 1-4 4H5a4 4 0 0 1-4-4v-8.969a2.5 2.5 0 0 1 1.336-4.495l.055-.113a3.5 3.5 0 0 1 5.137-1.245 1.996 1.996 0 0 1 2.847-.099A3 3 0 0 1 16 12.53l3.05.002a2.5 2.5 0 0 1 3.7-1.666 3.491 3.491 0 0 1 2.75-1.335zm4 8h-27V26a2.5 2.5 0 0 0 2.336 2.495L5 28.5h22a2.5 2.5 0 0 0 2.495-2.336L29.5 26v-8.469zm-22 1.563a.75.75 0 0 1 .743.648l.007.102v4.375a.75.75 0 0 1-1.493.101l-.007-.101v-4.375a.75.75 0 0 1 .75-.75zm4.5 0a.75.75 0 0 1 .743.648l.007.102v4.375a.75.75 0 0 1-1.493.101l-.007-.101v-4.375a.75.75 0 0 1 .75-.75zm4.5 0a.75.75 0 0 1 .743.648l.007.102v4.375a.75.75 0 0 1-1.493.101l-.007-.101v-4.375a.75.75 0 0 1 .75-.75zm4.5 0a.75.75 0 0 1 .743.648l.007.102v4.375a.75.75 0 0 1-1.493.101l-.007-.101v-4.375a.75.75 0 0 1 .75-.75zm4.5 0a.75.75 0 0 1 .743.648l.007.102v4.375a.75.75 0 0 1-1.493.101l-.007-.101v-4.375a.75.75 0 0 1 .75-.75zM11.887 14.03H2.483l-.1.007A1 1 0 0 0 2.253 16h27.494a1 1 0 0 0-.13-1.963l-.117-.007H14.109a8.861 8.861 0 0 1-.285.004l-.994-.003-.654.003c-.098 0-.195-.001-.289-.004zm1.113-3a1.5 1.5 0 0 0-1.493 1.356l-.006.119.236.018.198.007h2.127l.201-.007.236-.018-.006-.12a1.5 1.5 0 0 0-1.349-1.348L13 11.031zm-4 1a.5.5 0 0 0-.45.284c.037.063.07.127.102.192l-.084-.013c.079.016.18.03.303.034l.096.002h.066l.096-.002c.123-.005.224-.018.303-.034l.063-.015-.003-.038a.5.5 0 0 0-.402-.402L9 12.031zm16.5-1a2 2 0 0 0-1.72.979c.073.157.127.322.164.495.231.013.517.02.879.024l1.125.001c.62-.003 1.017-.013 1.314-.038l.159-.017-.006-.021a2.001 2.001 0 0 0-1.766-1.417l-.149-.006zm-20 1c-.44 0-.846.142-1.176.382l-.148.118h2.647l-.01-.01a1.992 1.992 0 0 0-1.164-.484L5.5 12.03zm16 0a1 1 0 0 0-.844.464l-.014.023.187.007.5.006.678-.003h.029c.015-.103.034-.203.057-.302a.993.993 0 0 0-.476-.188l-.117-.007zM16 4.53a2 2 0 1 1 0 4 2 2 0 0 1 0-4zm0 1.5a.5.5 0 1 0 0 1 .5.5 0 0 0 0-1zM6 .531a2 2 0 1 1 0 4 2 2 0 0 1 0-4zm0 1.5a.5.5 0 1 0 0 1 .5.5 0 0 0 0-1z" fill="#15120A" fill-rule="nonzero"></path></svg>