<svg width="32" height="32" viewBox="0 0 32 32" fill="none" xmlns="http://www.w3.org/2000/svg">
<path d="M20.668 1.33203H10.0013C9.11725 1.33203 8.2694 1.68322 7.64428 2.30834C7.01916 2.93346 6.66797 3.78131 6.66797 4.66536V27.332C6.66797 28.2161 7.01916 29.0639 7.64428 29.6891C8.2694 30.3142 9.11725 30.6654 10.0013 30.6654H20.668C21.552 30.6654 22.3999 30.3142 23.025 29.6891C23.6501 29.0639 24.0013 28.2161 24.0013 27.332V4.66536C24.0013 3.78131 23.6501 2.93346 23.025 2.30834C22.3999 1.68322 21.552 1.33203 20.668 1.33203V1.33203ZM15.3346 29.332C14.228 29.332 13.3346 28.4387 13.3346 27.332C13.3346 26.2254 14.228 25.332 15.3346 25.332C16.4413 25.332 17.3346 26.2254 17.3346 27.332C17.3346 28.4387 16.4413 29.332 15.3346 29.332ZM21.3346 23.9987H9.33464V5.33203H21.3346V23.9987Z" fill="white"/>
</svg>
