<svg width="32" height="32" viewBox="0 0 32 32" fill="none" xmlns="http://www.w3.org/2000/svg">
<path d="M16.0013 2.66797C10.8413 2.66797 6.66797 6.8413 6.66797 12.0013C6.66797 19.0013 16.0013 29.3346 16.0013 29.3346C16.0013 29.3346 25.3346 19.0013 25.3346 12.0013C25.3346 6.8413 21.1613 2.66797 16.0013 2.66797ZM16.0013 15.3346C15.1172 15.3346 14.2694 14.9834 13.6443 14.3583C13.0192 13.7332 12.668 12.8854 12.668 12.0013C12.668 11.1172 13.0192 10.2694 13.6443 9.64428C14.2694 9.01916 15.1172 8.66797 16.0013 8.66797C16.8854 8.66797 17.7332 9.01916 18.3583 9.64428C18.9834 10.2694 19.3346 11.1172 19.3346 12.0013C19.3346 12.8854 18.9834 13.7332 18.3583 14.3583C17.7332 14.9834 16.8854 15.3346 16.0013 15.3346V15.3346Z" fill="white"/>
</svg>
