<svg version="1.1" xmlns="http://www.w3.org/2000/svg" x="0" y="0" viewBox="0 0 512 512" style="enable-background:new 0 0 512 512" xml:space="preserve"><path d="M128 0c-17.6 0-32 14.4-32 32v448c0 17.6 14.4 32 32 32h320c17.6 0 32-14.4 32-32V128L352 0H128z" style="fill:#e2e5e7"></path><path d="M384 128h96L352 0v96c0 17.6 14.4 32 32 32z" style="fill:#b0b7bd"></path><path style="fill:#cad1d8" d="m480 224-96-96h96z"></path><path d="M416 416c0 8.8-7.2 16-16 16H48c-8.8 0-16-7.2-16-16V256c0-8.8 7.2-16 16-16h352c8.8 0 16 7.2 16 16v160z" style="fill:#f15642"></path><path d="M110.5 383.8v-84.4c0-1.9.4-3.2 1.3-4.1.8-.8 2.2-1.3 4.1-1.3H144c8.4 0 15.8 2 22.2 6.1 6.4 4.1 9.6 11.8 9.6 23.2 0 7.9-1.9 14-5.6 18.3-3.8 4.3-8 7.3-12.6 8.8-4.6 1.5-8.8 2.3-12.3 2.3h-14.2v31.1c0 2.9-2.7 4.3-8 4.3h-4.6c-5.3 0-8-1.4-8-4.3zm32.5-48.7c3.2 0 6-.8 8.2-2.5 2.3-1.7 3.4-4.7 3.4-9.1 0-4.4-1.1-7.4-3.4-9.2-2.3-1.7-5-2.6-8.2-2.6h-11.9v23.5H143zm46.1 51.5c-.9-.8-1.3-2.2-1.3-4.1v-83.1c0-1.9.4-3.2 1.3-4.1.8-.8 2.2-1.3 4.1-1.3h28.7c13.8 0 24.5 4 31.8 12.1 7.4 8.1 11.1 19.7 11.1 34.8 0 15.1-3.7 26.7-11.1 34.8-7.4 8.1-18 12.1-31.8 12.1h-28.7c-1.9.1-3.3-.4-4.1-1.2zm32.7-16.3c7.1 0 12.5-2.5 16.2-7.5 3.7-5 5.5-12.3 5.5-21.8 0-9.6-1.8-16.8-5.5-21.8s-9.1-7.5-16.2-7.5h-13.3v58.7h13.3zm59.1 13.5v-84.4c0-1.9.4-3.2 1.3-4.1.8-.8 2.2-1.3 4.1-1.3h44.1c1.4 0 2.5.5 3.1 1.6.6 1.1.9 2.8.9 5.1v4.2c0 2.3-.3 4-.9 5.1-.6 1.1-1.7 1.6-3.1 1.6h-28.8v23.6h27.9c1.4 0 2.5.5 3.1 1.6.6 1.1.9 2.8.9 5.1v4.2c0 2.3-.3 4-.9 5.1-.6 1.1-1.7 1.6-3.1 1.6h-27.9v31.1c0 2.9-2.7 4.3-8 4.3H289c-5.4-.1-8.1-1.5-8.1-4.4z" style="fill:#fff"></path></svg>